<?xml version="1.0" standalone="no"?><svg xmlns="http://www.w3.org/2000/svg" viewBox="0 0 1440 320"><path fill="#323130" fill-opacity="1" d="M0,320L30,293.3C60,267,120,213,180,170.7C240,128,300,96,360,122.7C420,149,480,235,540,256C600,277,660,235,720,192C780,149,840,107,900,112C960,117,1020,171,1080,192C1140,213,1200,203,1260,170.7C1320,139,1380,85,1410,58.7L1440,32L1440,320L1410,320C1380,320,1320,320,1260,320C1200,320,1140,320,1080,320C1020,320,960,320,900,320C840,320,780,320,720,320C660,320,600,320,540,320C480,320,420,320,360,320C300,320,240,320,180,320C120,320,60,320,30,320L0,320Z"></path></svg>